<mxfile host="app.diagrams.net" modified="2023-09-14T01:21:20.375Z" agent="Mozilla/5.0 (Macintosh; Intel Mac OS X 10_15_7) AppleWebKit/537.36 (KHTML, like Gecko) Chrome/116.0.0.0 Safari/537.36" version="21.7.2" etag="-bT9oaz-6Xm31Rq7z9Gw" type="github">
  <diagram name="페이지-1" id="4a6Bja47gQQT_-eEZK8D">
    <mxGraphModel>
      <root>
        <mxCell id="0" />
        <mxCell id="1" parent="0" />
      </root>
    </mxGraphModel>
  </diagram>
</mxfile>
